<?xml version="1.0" encoding="utf-8"?>
<!-- Generator: Adobe Illustrator 19.0.0, SVG Export Plug-In . SVG Version: 6.00 Build 0)  -->
<svg version="1.1" id="Layer_1" xmlns="http://www.w3.org/2000/svg" xmlns:xlink="http://www.w3.org/1999/xlink" x="0px" y="0px"
	 viewBox="-268 262 254 89" style="enable-background:new -268 262 254 89;" xml:space="preserve">
<style type="text/css">
	.st0{fill:#1D1D1B;}
	.st1{fill:#009FE3;}
</style>
<g>
	<g>
		<g>
			<g>
				<g>
					<path class="st0" d="M-226,306v19.3c0,2.7-0.5,5.2-1.5,7.5c-1,2.4-2.4,4.5-4.2,6.2c-1.8,1.8-3.9,3.2-6.2,4.2
						c-2.3,1-4.9,1.5-7.6,1.5c-2.6,0-5.1-0.5-7.5-1.5c-2.4-1-4.4-2.4-6.2-4.2c-1.8-1.8-3.1-3.8-4.1-6.2c-1-2.4-1.5-4.9-1.5-7.5V306
						h7.7v19.3c0,1.6,0.3,3.2,0.9,4.6c0.6,1.4,1.5,2.7,2.5,3.8c1.1,1.1,2.3,1.9,3.7,2.5c1.4,0.6,2.9,0.9,4.5,0.9
						c1.6,0,3.1-0.3,4.6-0.9c1.5-0.6,2.7-1.4,3.8-2.5c1-1,1.9-2.3,2.5-3.8c0.6-1.4,0.9-3,0.9-4.6V306H-226z"/>
					<path class="st0" d="M-187.9,306v7.7h-23.4c-1.1,0-2,0.4-2.8,1.1c-0.8,0.8-1.1,1.7-1.1,2.8c0,1.1,0.4,2,1.1,2.8
						c0.8,0.8,1.7,1.2,2.8,1.2h15.5c1.6,0,3.1,0.3,4.6,0.9c1.4,0.6,2.6,1.4,3.7,2.5c1,1,1.9,2.3,2.5,3.7c0.6,1.4,0.9,2.9,0.9,4.5
						c0,1.6-0.3,3.1-0.9,4.5c-0.6,1.4-1.4,2.6-2.5,3.7c-1.1,1-2.3,1.9-3.7,2.5c-1.4,0.6-2.9,0.9-4.6,0.9H-219v-7.7h23.3
						c1.2,0,2.1-0.4,2.9-1.1c0.8-0.7,1.1-1.7,1.1-2.8c0-1.1-0.4-2-1.1-2.8c-0.8-0.7-1.7-1.1-2.9-1.1l-15.5,0c-1.6,0-3.1-0.3-4.5-0.9
						c-1.4-0.6-2.6-1.4-3.7-2.5c-1-1.1-1.9-2.3-2.4-3.7c-0.6-1.4-0.9-2.9-0.9-4.5c0-1.6,0.3-3.1,0.9-4.5c0.6-1.4,1.4-2.6,2.5-3.7
						c1-1.1,2.2-1.8,3.7-2.5c1.4-0.6,2.9-0.9,4.5-0.9H-187.9z"/>
					<path class="st0" d="M-162.3,306c2.7,0,5.2,0.5,7.5,1.5c2.3,1,4.4,2.4,6.1,4.1c1.8,1.8,3.1,3.8,4.1,6.1c1,2.3,1.5,4.8,1.5,7.5
						l0,19.4h-19.3c-2.6,0-5.2-0.5-7.5-1.5c-2.4-1-4.4-2.4-6.2-4.2c-1.8-1.8-3.2-3.8-4.2-6.2c-1-2.4-1.5-4.9-1.5-7.5
						c0-2.7,0.5-5.2,1.5-7.5c1-2.4,2.4-4.4,4.2-6.1c1.8-1.8,3.8-3.1,6.2-4.1C-167.5,306.5-164.9,306-162.3,306 M-150.7,337.1v-11.8
						c0-1.6-0.3-3.1-0.9-4.5c-0.6-1.4-1.4-2.6-2.5-3.7c-1.1-1.1-2.3-1.9-3.7-2.5c-1.4-0.6-2.9-0.9-4.5-0.9c-1.6,0-3.2,0.3-4.6,0.9
						c-1.5,0.6-2.7,1.4-3.8,2.5c-1,1.1-1.9,2.3-2.5,3.7c-0.6,1.4-0.9,2.9-0.9,4.5c0,1.6,0.3,3.2,0.9,4.6c0.6,1.4,1.4,2.7,2.5,3.8
						c1.1,1.1,2.3,1.9,3.8,2.5c1.4,0.6,2.9,0.9,4.6,0.9H-150.7z"/>
				</g>
				<g>
					<path class="st0" d="M-101,294.3v31.1c0,2.6-0.5,5.2-1.5,7.5c-1,2.4-2.4,4.5-4.2,6.2c-1.7,1.8-3.8,3.2-6.2,4.2
						c-2.4,1-4.9,1.5-7.5,1.5c-2.6,0-5.2-0.5-7.5-1.5c-2.3-1-4.4-2.4-6.2-4.2c-1.8-1.8-3.2-3.8-4.2-6.2c-1-2.4-1.5-4.9-1.5-7.5
						c0-2.7,0.5-5.2,1.5-7.5c1-2.4,2.4-4.4,4.2-6.1c1.8-1.8,3.9-3.1,6.2-4.1c2.4-1,4.9-1.5,7.5-1.5h11.7v-11.8H-101z M-120.4,337.1
						c1.6,0,3.1-0.3,4.5-0.9c1.4-0.6,2.6-1.4,3.7-2.5c1.1-1,1.9-2.3,2.5-3.7c0.6-1.4,0.9-3,0.9-4.6v-11.7h-11.7
						c-1.6,0-3.1,0.3-4.6,0.9c-1.4,0.6-2.7,1.4-3.8,2.5c-1,1.1-1.9,2.3-2.5,3.7c-0.6,1.4-0.9,2.9-0.9,4.5c0,1.6,0.3,3.1,0.9,4.6
						c0.6,1.5,1.4,2.7,2.5,3.8c1.1,1.1,2.3,1.9,3.8,2.5C-123.5,336.8-122,337.1-120.4,337.1"/>
					<path class="st0" d="M-97.3,325.2c0-2.7,0.5-5.3,1.5-7.6c1-2.4,2.4-4.4,4.1-6.2c1.8-1.8,3.9-3.2,6.2-4.1c2.4-1,4.9-1.5,7.6-1.5
						c2.8,0,5.3,0.5,7.6,1.5c2.3,1,4.4,2.4,6.2,4.1c1.8,1.8,3.2,3.9,4.2,6.2c1,2.4,1.5,4.9,1.5,7.6c0,2.7-0.5,5.2-1.5,7.6
						c-1,2.4-2.4,4.5-4.2,6.3c-1.8,1.8-3.9,3.2-6.2,4.2c-2.4,1-4.9,1.5-7.6,1.5c-2.7,0-5.2-0.5-7.6-1.5c-2.4-1-4.4-2.4-6.2-4.2
						c-1.8-1.8-3.1-3.9-4.1-6.3C-96.8,330.4-97.3,327.8-97.3,325.2 M-89.7,325.2c0,1.6,0.3,3.2,0.9,4.6c0.6,1.5,1.4,2.7,2.5,3.8
						c1.1,1.1,2.3,1.9,3.8,2.5c1.5,0.6,3,1,4.6,1c1.6,0,3.1-0.3,4.6-1c1.4-0.6,2.7-1.4,3.8-2.5c1.1-1.1,1.9-2.3,2.5-3.8
						c0.6-1.4,0.9-3,0.9-4.6c0-1.6-0.3-3.1-0.9-4.6c-0.6-1.4-1.5-2.7-2.5-3.8c-1.1-1.1-2.4-1.9-3.8-2.5c-1.5-0.6-3-0.9-4.6-0.9
						c-1.6,0-3.2,0.3-4.6,0.9c-1.5,0.6-2.7,1.4-3.8,2.5c-1.1,1.1-1.9,2.3-2.5,3.8C-89.4,322-89.7,323.6-89.7,325.2"/>
					<path class="st0" d="M-21.4,306v7.7h-23.4c-1.1,0-2,0.4-2.8,1.1c-0.7,0.8-1.1,1.7-1.1,2.8c0,1.1,0.4,2,1.1,2.8
						c0.7,0.8,1.7,1.2,2.8,1.2h15.6c1.6,0,3.1,0.3,4.5,0.9c1.4,0.6,2.6,1.4,3.7,2.5c1.1,1,1.9,2.3,2.5,3.7c0.6,1.4,0.9,2.9,0.9,4.5
						c0,1.6-0.3,3.1-0.9,4.5c-0.6,1.4-1.5,2.6-2.5,3.7c-1.1,1.1-2.3,1.9-3.7,2.5c-1.4,0.6-2.9,0.9-4.5,0.9h-23.3v-7.7l23.3,0
						c1.1,0,2.1-0.4,2.8-1.2c0.8-0.7,1.1-1.7,1.1-2.8c0-1.1-0.3-2-1.1-2.8c-0.7-0.7-1.7-1.1-2.9-1.1h-15.5c-1.6,0-3.1-0.3-4.5-0.9
						c-1.4-0.6-2.6-1.4-3.7-2.5c-1-1.1-1.9-2.3-2.5-3.7c-0.6-1.4-0.9-2.9-0.9-4.5c0-1.6,0.3-3.1,0.9-4.5c0.6-1.4,1.4-2.6,2.5-3.7
						c1-1,2.3-1.8,3.7-2.5c1.4-0.6,2.9-0.9,4.5-0.9H-21.4z"/>
				</g>
			</g>
		</g>
	</g>
	<g>
		<path class="st0" d="M-254.6,272.4c1.4,0,2.8,0.3,4,0.8c1.2,0.5,2.3,1.3,3.3,2.2c0.9,0.9,1.7,2,2.2,3.3c0.5,1.2,0.8,2.6,0.8,4
			v10.3h-10.3c-1.4,0-2.7-0.3-4-0.8c-1.3-0.5-2.4-1.3-3.3-2.2c-1-1-1.7-2.1-2.2-3.3c-0.5-1.3-0.8-2.6-0.8-4c0-1.4,0.3-2.8,0.8-4
			c0.5-1.2,1.3-2.3,2.2-3.3c1-0.9,2-1.7,3.3-2.2C-257.4,272.7-256,272.4-254.6,272.4 M-248.4,289v-6.3c0-0.9-0.2-1.7-0.5-2.4
			c-0.3-0.8-0.8-1.4-1.3-2c-0.6-0.6-1.2-1-2-1.3c-0.8-0.3-1.6-0.5-2.4-0.5c-0.9,0-1.7,0.2-2.4,0.5c-0.8,0.3-1.4,0.8-2,1.3
			c-0.6,0.6-1,1.2-1.3,2c-0.3,0.7-0.5,1.6-0.5,2.4c0,0.9,0.2,1.7,0.5,2.4c0.3,0.8,0.8,1.4,1.3,2c0.6,0.6,1.2,1,2,1.3
			c0.8,0.3,1.6,0.5,2.4,0.5H-248.4z"/>
		<path class="st0" d="M-222.4,272.4v10.3c0,1.4-0.3,2.7-0.8,4c-0.5,1.3-1.3,2.4-2.2,3.3c-0.9,1-2,1.7-3.3,2.2
			c-1.2,0.5-2.6,0.8-4,0.8c-1.4,0-2.7-0.3-4-0.8c-1.3-0.5-2.4-1.3-3.3-2.2c-0.9-1-1.7-2.1-2.2-3.3c-0.5-1.3-0.8-2.6-0.8-4v-10.3h4.1
			v10.3c0,0.9,0.2,1.7,0.5,2.4c0.3,0.8,0.8,1.4,1.3,2c0.6,0.6,1.2,1,2,1.3c0.7,0.3,1.6,0.5,2.4,0.5c0.9,0,1.7-0.2,2.4-0.5
			c0.8-0.3,1.4-0.8,2-1.3c0.6-0.6,1-1.2,1.3-2c0.3-0.8,0.5-1.6,0.5-2.4v-10.3H-222.4z"/>
		<path class="st0" d="M-208.2,289v4.1h-2c-1.4,0-2.7-0.3-4-0.8c-1.3-0.5-2.4-1.3-3.3-2.2c-1-1-1.7-2.1-2.2-3.3
			c-0.5-1.3-0.8-2.6-0.8-4v-18.6h4.1v12.4h8.3v4.1h-8.3v2.1c0,0.9,0.2,1.7,0.5,2.4c0.3,0.8,0.8,1.4,1.3,2c0.6,0.6,1.2,1,2,1.3
			c0.8,0.3,1.6,0.5,2.4,0.5H-208.2z"/>
		<path class="st0" d="M-168.6,278.8c0.5-1.2,1.3-2.3,2.2-3.3c0.9-0.9,2-1.7,3.3-2.2c1.3-0.5,2.6-0.8,4-0.8c1.4,0,2.8,0.3,4,0.8
			c1.2,0.5,2.3,1.3,3.3,2.2c0.9,0.9,1.7,2,2.2,3.3c0.5,1.2,0.8,2.6,0.8,4v10.4h-4.1v-10.4c0-0.9-0.2-1.7-0.5-2.4
			c-0.3-0.8-0.8-1.4-1.3-2c-0.6-0.6-1.2-1-2-1.3c-0.8-0.3-1.6-0.5-2.4-0.5c-0.9,0-1.7,0.2-2.4,0.5c-0.8,0.3-1.4,0.8-2,1.3
			c-0.6,0.6-1,1.2-1.3,2c-0.3,0.8-0.5,1.6-0.5,2.4v10.4h-4.1v-10.4C-169.4,281.3-169.1,280-168.6,278.8"/>
		<path class="st0" d="M-137,272.4c1.4,0,2.8,0.3,4,0.8c1.2,0.5,2.3,1.3,3.3,2.2c0.9,0.9,1.7,2,2.2,3.3c0.5,1.2,0.8,2.6,0.8,4v10.3
			H-137c-1.4,0-2.7-0.3-4-0.8c-1.3-0.5-2.4-1.3-3.3-2.2c-1-1-1.7-2.1-2.2-3.3c-0.5-1.3-0.8-2.6-0.8-4c0-1.4,0.3-2.8,0.8-4
			c0.5-1.2,1.3-2.3,2.2-3.3c0.9-0.9,2.1-1.7,3.3-2.2C-139.8,272.7-138.5,272.4-137,272.4 M-130.8,289v-6.3c0-0.9-0.2-1.7-0.5-2.4
			c-0.3-0.8-0.8-1.4-1.3-2c-0.6-0.6-1.2-1-2-1.3c-0.7-0.3-1.6-0.5-2.4-0.5c-0.9,0-1.7,0.2-2.4,0.5c-0.8,0.3-1.4,0.8-2,1.3
			c-0.6,0.6-1,1.2-1.3,2c-0.3,0.7-0.5,1.6-0.5,2.4c0,0.9,0.2,1.7,0.5,2.4c0.3,0.8,0.8,1.4,1.3,2c0.6,0.6,1.2,1,2,1.3
			c0.8,0.3,1.6,0.5,2.4,0.5H-130.8z"/>
		<rect x="-124.5" y="264.2" class="st0" width="4.1" height="28.9"/>
		<path class="st1" d="M-187.5,297.2c0,1.7-1.3,3-3,3c-1.7,0-3-1.3-3-3c0-1.7,1.4-3,3-3C-188.8,294.2-187.5,295.5-187.5,297.2"/>
		<path class="st1" d="M-172.1,285.5c0,0.8-0.7,1.5-1.5,1.5c-0.8,0-1.5-0.7-1.5-1.5c0-0.8,0.6-1.5,1.5-1.5
			C-172.8,284-172.1,284.7-172.1,285.5"/>
		<path class="st1" d="M-174.2,274.9c-0.5-1.1-1.4-2-2.6-2.7c-1.2-0.6-2.7-1-4.6-1c-1.8,0-3.7,0.3-5.7,1c-2,0.6-4,1.5-5.8,2.6
			c-1.9,1.1-3.6,2.4-5.2,3.9c-1.6,1.5-2.9,3.1-4,4.8c-1,1.7-2.6,4.5-2.9,6c-0.2,1.5-0.1,2.8,0.4,4c0.2,0.4,0.9,1.5,1.1,1.8l4.4-4.2
			c-0.4-0.4-0.4-0.4-0.6-0.9c-0.4-0.8-0.5-1.8-0.3-3c0.2-1.1,1.1-3.1,1.9-4.4c0.8-1.3,2.2-2.9,3.4-4c1.5-1.4,1.4-1.4,3.8-2.9
			c1.4-0.8,2.8-1.5,4.3-2c1.5-0.5,2.9-0.7,4.2-0.7c1.3,0,2.4,0.2,3.3,0.7c0.9,0.5,1.5,1.1,1.9,2c0.4,0.8,0.5,1.8,0.3,2.9
			c-0.2,1.1,1.5-0.1,0.7,1.2c-0.8,1.3-1.7,2.5-2.9,3.6c-1.2,1.1-2.5,2.1-3.8,3c-1.4,0.8-2.8,1.5-4.3,2c-1.5,0.5-2.9,0.7-4.2,0.7
			c-0.8,0-1.5-0.1-2.2-0.3l-3.8,4.1c0.9,0.2,1.8,0.4,2.9,0.4c1.8,0,3.8-0.3,5.8-1c2-0.6,3.9-1.5,5.9-2.7c1.9-1.1,3.7-2.5,5.3-4
			c1.6-1.5,2.9-3.1,4-4.8c1.1-1.7-0.4-0.9-0.2-2.4C-173.6,277.3-173.7,276-174.2,274.9"/>
	</g>
</g>
</svg>
