<?xml version="1.0" encoding="utf-8"?>
<!-- Generator: Adobe Illustrator 19.0.0, SVG Export Plug-In . SVG Version: 6.00 Build 0)  -->
<svg version="1.1" id="Layer_1" xmlns="http://www.w3.org/2000/svg" xmlns:xlink="http://www.w3.org/1999/xlink" x="0px" y="0px"
	 viewBox="48 6 276.7 89" style="enable-background:new 48 6 276.7 89;" xml:space="preserve">
<style type="text/css">
	.st0{fill:#BEBEBE;}
	.st1{font-family:'ArialMT';}
	.st2{font-size:32.6317px;}
	.st3{font-size:32.291px;}
</style>
<path class="st0" d="M103,19.9c-14.2,0-25.8,11.5-25.8,25.8c0,6.5,2.4,12.4,6.4,16.9l0,0l0.1,0.1c0.7,0.8,1.4,1.5,2.2,2.2L103,82
	l16.9-16.9c5.4-4.7,8.9-11.7,8.9-19.5C128.7,31.5,117.2,19.9,103,19.9z M103,56.8c-6.1,0-11.1-5-11.1-11.1s5-11.1,11.1-11.1
	s11.1,5,11.1,11.1C114,51.8,109.1,56.8,103,56.8z"/>
<text transform="matrix(1 0 0 1 140.9121 47.3276)" class="st0 st1 st2">Chía</text>
<text transform="matrix(1 0 0 1 140.05 74.6094)" class="st0 st1 st3">Sindamanoy</text>
</svg>
