<?xml version="1.0" encoding="utf-8"?>
<!-- Generator: Adobe Illustrator 19.0.0, SVG Export Plug-In . SVG Version: 6.00 Build 0)  -->
<svg version="1.1" id="Capa_1" xmlns="http://www.w3.org/2000/svg" xmlns:xlink="http://www.w3.org/1999/xlink" x="0px" y="0px"
	 viewBox="0 0 792 612" style="enable-background:new 0 0 792 612;" xml:space="preserve">
<style type="text/css">
	.st0{fill:#231F20;}
</style>
<g>
	<path class="st0" d="M408.6,311.8c0-1.4-1.1-2.5-2.5-2.5c-0.5,0-1,0.2-1.4,0.4h0l0,0c-0.2,0.1-0.3,0.2-0.5,0.4l0,0
		c-0.5,0.5-1.3,1.2-1.9,1.9c-0.1-0.3-0.3-0.6-0.6-0.9c-2.4-2.2-5.4-3-8.7-3c-1.1,0-2.2,0.1-3.2,0.3c0-0.4-0.1-0.6-0.1-0.6h-6.6
		c0,0-0.3,2.4-0.3,5.4c0,3,0.3,5.4,0.3,5.4h6.6c0,0,0.1-0.6,0.1-1.5c1-0.2,2,0.1,3.1,0.8c1.5,1,3.3,1.5,5.2,1.5c2,0,3.7-0.6,5.1-1.6
		h0c0,0,0,0,0,0c0.4-0.3,0.8-0.6,1.1-0.9c0.3-0.3,0.7-0.6,1.2-1.2c1.9-1.9,2.1-2.2,2.1-2.2s0,0,0,0
		C408.3,313.1,408.6,312.5,408.6,311.8L408.6,311.8z M407.4,312.7c-0.3,0.3-1.8,1.9-2.2,2.3c-1,1-1.5,1.5-1.7,1.8l0,0
		c-0.2,0.1-0.3,0.3-0.5,0.4c-1.3,0.9-2.9,1.4-4.7,1.4c-1.8,0-3.4-0.5-4.7-1.5h0c-1.1-0.7-2.5-1.1-3.8-1c0.1-0.9,0.1-2,0.1-2.8
		c0-1.2-0.1-2.7-0.2-3.9c1-0.2,2.1-0.4,3.2-0.4c3.4,0,6.4,1.2,8.2,3c0.2,0.2,0.4,0.6,0.4,0.9c0,0.8-0.6,1.4-1.4,1.4c0,0-0.1,0-0.1,0
		l0,0c-0.7,0-1.8-0.3-3.7-1.1l-0.4,1.1c2,0.8,3.3,1.1,4.2,1.1v0c1.1,0,2.1-0.8,2.4-1.9v0c0.4-0.7,1.9-2.1,2.7-2.9c0,0,0,0,0,0
		c0.2-0.1,0.3-0.3,0.4-0.4c0.2-0.1,0.4-0.2,0.7-0.2c0.8,0,1.4,0.6,1.4,1.4C407.7,312.1,407.6,312.4,407.4,312.7L407.4,312.7z
		 M407.1,312.8"/>
	<path class="st0" d="M400.6,308.8c4.1,0,7.4-3.3,7.4-7.4c0-4.1-3.3-7.4-7.4-7.4c-4.1,0-7.4,3.3-7.4,7.4
		C393.2,305.5,396.5,308.8,400.6,308.8L400.6,308.8z M400.6,295c3.5,0,6.4,2.9,6.4,6.4c0,3.5-2.9,6.4-6.4,6.4
		c-3.5,0-6.4-2.9-6.4-6.4C394.2,297.9,397.1,295,400.6,295L400.6,295z M400.6,295.3"/>
	<path class="st0" d="M398.6,301.2c0.2,0.2,0.4,0.4,0.7,0.5c0.3,0.2,0.7,0.3,1.2,0.3c0.1,0,0.3,0.1,0.4,0.1c0.1,0,0.3,0.1,0.4,0.1
		c0.1,0.1,0.2,0.1,0.3,0.2c0.1,0.1,0.1,0.2,0.1,0.3c0,0.1-0.1,0.3-0.2,0.4c-0.1,0.1-0.3,0.1-0.5,0.1c-0.2,0-0.3,0-0.4,0
		c-0.1,0-0.2-0.1-0.4-0.1c-0.1-0.1-0.2-0.1-0.3-0.2c-0.1-0.1-0.2-0.2-0.3-0.3h-1.2v1.8h1.2v-0.3c0.1,0,0.1,0.1,0.2,0.1
		c0.1,0,0.1,0.1,0.2,0.1v0.7h1.2v-0.5c0.3,0,0.5-0.1,0.7-0.2c0.2-0.1,0.4-0.2,0.6-0.4c0.2-0.1,0.3-0.3,0.4-0.5
		c0.1-0.2,0.1-0.4,0.1-0.6c0-0.1,0-0.3-0.1-0.5c0-0.2-0.1-0.4-0.3-0.6c-0.2-0.2-0.4-0.4-0.7-0.6c-0.3-0.2-0.7-0.3-1.2-0.4
		c-0.8-0.1-1.2-0.4-1.2-0.7c0-0.1,0.1-0.3,0.2-0.4c0.1-0.1,0.3-0.2,0.6-0.2c0.2,0,0.3,0,0.4,0c0.1,0,0.2,0.1,0.3,0.1
		c0.1,0.1,0.2,0.1,0.3,0.2c0.1,0.1,0.2,0.2,0.3,0.3h1.2v-1.8h-1.2v0.3c-0.1-0.1-0.3-0.2-0.5-0.2v-0.7h-1.2v0.6
		c-0.2,0-0.4,0.1-0.6,0.2c-0.2,0.1-0.4,0.2-0.5,0.4c-0.1,0.2-0.3,0.3-0.3,0.5c-0.1,0.2-0.1,0.4-0.1,0.6c0,0.2,0,0.3,0.1,0.5
		C398.4,300.8,398.5,301,398.6,301.2L398.6,301.2z M398.6,301.2"/>
</g>
</svg>
